<?xml version="1.0" standalone="no"?>
<!DOCTYPE svg PUBLIC "-//W3C//DTD SVG 20010904//EN"
 "http://www.w3.org/TR/2001/REC-SVG-20010904/DTD/svg10.dtd">
<svg version="1.0" xmlns="http://www.w3.org/2000/svg"
 width="192.000000pt" height="192.000000pt" viewBox="0 0 192.000000 192.000000"
 preserveAspectRatio="xMidYMid meet">

<g transform="translate(0.000000,192.000000) scale(0.100000,-0.100000)"
fill="#000000" stroke="none">
<path d="M130 1907 c-47 -15 -103 -74 -118 -123 -17 -59 -17 -1589 0 -1648 16
-52 72 -108 124 -124 59 -17 1589 -17 1648 0 52 16 108 72 124 124 17 59 17
1589 0 1648 -16 52 -72 108 -124 124 -56 16 -1602 16 -1654 -1z m1570 -202
c50 -50 19 -136 -55 -150 -22 -5 -39 0 -65 17 -30 20 -35 30 -38 67 -7 90 92
131 158 66z m-1086 -477 c71 -216 133 -404 139 -418 10 -28 21 1 172 475 42
132 84 261 93 288 l16 47 103 0 c100 0 103 -1 103 -22 0 -13 7 -99 15 -193 15
-169 20 -220 49 -575 9 -102 18 -200 20 -217 l5 -33 -78 0 -79 0 -6 53 c-3 28
-10 120 -16 202 -6 83 -15 194 -20 249 -6 54 -10 133 -10 176 0 42 -3 99 -7
125 -6 47 -6 46 -59 -126 -29 -96 -91 -286 -137 -424 l-84 -250 -73 0 -74 0
-112 340 c-62 187 -124 378 -138 425 -14 47 -25 78 -25 70 -1 -8 -8 -100 -16
-205 -38 -495 -45 -592 -45 -612 0 -22 -4 -23 -81 -23 -72 0 -80 2 -75 18 2 9
10 80 16 157 15 184 35 424 56 668 l18 197 101 0 101 0 128 -392z m1094 -285
c-5 -454 -8 -480 -65 -586 -32 -57 -101 -122 -164 -154 l-44 -22 -32 52 c-18
29 -33 54 -33 57 0 3 14 14 31 24 17 10 46 32 65 49 83 72 93 138 94 620 l0
377 76 0 76 0 -4 -417z"/>
</g>
</svg>
